<?xml version="1.0" standalone="no"?>
<!DOCTYPE svg PUBLIC "-//W3C//DTD SVG 20010904//EN"
 "http://www.w3.org/TR/2001/REC-SVG-20010904/DTD/svg10.dtd">
<svg version="1.0" xmlns="http://www.w3.org/2000/svg"
 width="300.000000pt" height="300.000000pt" viewBox="0 0 300.000000 300.000000"
 preserveAspectRatio="xMidYMid meet">
<metadata>
Created by potrace 1.10, written by Peter Selinger 2001-2011
</metadata>
<g transform="translate(0.000000,300.000000) scale(0.100000,-0.100000)"
fill="#000000" stroke="none">
<path d="M580 2102 c-124 -41 -218 -112 -285 -212 -169 -254 -147 -595 50
-796 222 -226 587 -180 773 98 30 46 31 48 11 58 -17 9 -28 4 -72 -34 -62 -55
-123 -77 -211 -77 -119 0 -205 62 -270 196 -51 103 -67 174 -73 321 -6 145 3
210 43 291 44 92 140 123 201 65 25 -23 32 -40 42 -107 15 -101 46 -156 104
-184 112 -54 217 7 217 128 0 96 -64 176 -189 234 -60 29 -77 32 -176 34 -85
2 -122 -1 -165 -15z m265 -36 c141 -37 225 -122 225 -226 0 -77 -80 -120 -155
-84 -44 20 -71 61 -80 118 -14 93 -35 144 -70 175 l-36 31 33 0 c18 0 56 -6
83 -14z m-309 -59 c-47 -61 -68 -140 -73 -274 -3 -72 -1 -149 6 -190 37 -211
139 -375 268 -430 44 -19 172 -21 217 -4 39 16 43 8 10 -22 -77 -71 -223 -108
-347 -88 -98 16 -167 50 -236 116 -214 204 -212 601 3 820 55 56 161 123 174
110 2 -2 -8 -19 -22 -38z"/>
<path d="M1629 2102 c-92 -31 -157 -72 -227 -146 -117 -123 -165 -255 -165
-446 0 -98 4 -127 27 -194 36 -105 69 -160 137 -227 113 -112 276 -160 439
-129 118 22 248 114 328 232 32 46 32 47 12 58 -18 9 -28 5 -73 -34 -62 -55
-123 -77 -210 -77 -87 0 -137 22 -197 88 -94 103 -139 237 -147 433 -10 248
54 380 182 380 52 0 91 -41 100 -106 14 -101 33 -150 74 -187 89 -81 221 -50
250 59 27 102 -45 211 -184 276 -64 30 -79 33 -180 35 -85 2 -123 -1 -166 -15z
m320 -53 c114 -50 171 -118 171 -203 0 -36 -5 -52 -24 -71 -34 -33 -85 -41
-131 -19 -49 23 -71 62 -86 148 -13 83 -21 99 -63 145 l-31 34 59 -7 c33 -4
80 -16 105 -27z m-362 -41 c-72 -95 -98 -324 -58 -508 40 -180 134 -326 244
-379 38 -19 66 -24 125 -24 43 0 90 6 106 12 41 16 46 4 11 -25 -88 -72 -220
-105 -341 -86 -185 29 -322 154 -380 347 -13 43 -18 93 -18 175 0 102 3 124
30 200 51 146 135 249 247 304 28 14 52 24 55 22 2 -3 -7 -20 -21 -38z"/>
<path d="M2506 1329 c-93 -22 -151 -103 -144 -201 5 -70 41 -121 108 -155 53
-28 102 -29 155 -4 76 35 115 95 115 176 0 55 -14 92 -48 128 -50 53 -115 72
-186 56z m140 -70 c107 -100 46 -263 -98 -263 -148 0 -202 195 -76 275 47 29
137 23 174 -12z"/>
</g>
</svg>
